<?xml version="1.0" encoding="UTF-8" standalone="no"?>
<!-- Created with Inkscape (http://www.inkscape.org/) -->

<svg
   xmlns:dc="http://purl.org/dc/elements/1.1/"
   xmlns:cc="http://creativecommons.org/ns#"
   xmlns:rdf="http://www.w3.org/1999/02/22-rdf-syntax-ns#"
   xmlns:svg="http://www.w3.org/2000/svg"
   xmlns="http://www.w3.org/2000/svg"
   xmlns:sodipodi="http://sodipodi.sourceforge.net/DTD/sodipodi-0.dtd"
   xmlns:inkscape="http://www.inkscape.org/namespaces/inkscape"
   width="120"
   height="120"
   id="svg2"
   version="1.1"
   inkscape:version="0.48.5 r10040"
   sodipodi:docname="170724_202103.svg">
  <defs
     id="defs4">
    <filter
       inkscape:collect="always"
       id="filter3918"
       x="-0.15826633"
       width="1.3165327"
       y="-0.45453401"
       height="1.909068">
      <feGaussianBlur
         inkscape:collect="always"
         stdDeviation="7.494535"
         id="feGaussianBlur3920" />
    </filter>
    <filter
       inkscape:collect="always"
       id="filter3972"
       x="-0.23517056"
       width="1.4703411"
       y="-0.23522945"
       height="1.4704589">
      <feGaussianBlur
         inkscape:collect="always"
         stdDeviation="11.311134"
         id="feGaussianBlur3974" />
    </filter>
    <filter
       inkscape:collect="always"
       id="filter3923"
       x="-0.24604314"
       width="1.4920863"
       y="-0.20616853"
       height="1.4123371">
      <feGaussianBlur
         inkscape:collect="always"
         stdDeviation="10.077624"
         id="feGaussianBlur3925" />
    </filter>
  </defs>
  <sodipodi:namedview
     id="base"
     pagecolor="#ffffff"
     bordercolor="#666666"
     borderopacity="1.0"
     inkscape:pageopacity="0.0"
     inkscape:pageshadow="2"
     inkscape:zoom="0.98994949"
     inkscape:cx="-6.8002493"
     inkscape:cy="-15.797359"
     inkscape:document-units="px"
     inkscape:current-layer="layer1"
     showgrid="false"
     inkscape:snap-bbox="true"
     inkscape:object-nodes="true"
     inkscape:bbox-nodes="true"
     inkscape:bbox-paths="true"
     inkscape:snap-global="false"
     inkscape:window-width="1024"
     inkscape:window-height="702"
     inkscape:window-x="0"
     inkscape:window-y="27"
     inkscape:window-maximized="1" />
  <metadata
     id="metadata7">
    <rdf:RDF>
      <cc:Work
         rdf:about="">
        <dc:format>image/svg+xml</dc:format>
        <dc:type
           rdf:resource="http://purl.org/dc/dcmitype/StillImage" />
        <dc:title />
      </cc:Work>
    </rdf:RDF>
  </metadata>
  <g
     inkscape:label="Layer 1"
     inkscape:groupmode="layer"
     id="layer1"
     transform="translate(0,-932.36218)">
    <path
       style="font-size:medium;font-style:normal;font-variant:normal;font-weight:normal;font-stretch:normal;text-indent:0;text-align:start;text-decoration:none;line-height:normal;letter-spacing:normal;word-spacing:normal;text-transform:none;direction:ltr;block-progression:tb;writing-mode:lr-tb;text-anchor:start;baseline-shift:baseline;color:#000000;fill:#ffffff;fill-opacity:1;stroke:none;stroke-width:8.65799999000000042;marker:none;visibility:visible;display:inline;overflow:visible;enable-background:accumulate;font-family:Sans;-inkscape-font-specification:Sans;filter:url(#filter3923)"
       d="m 102.28571,933.92468 a 4.3294329,4.3294329 0 0 0 -4.249996,4.40625 l 0,103.81247 -49.375,0.375 0,-50.03122 a 4.3294329,4.3294329 0 1 0 -8.65625,0 l 0,54.40622 a 4.3294329,4.3294329 0 0 0 4.34375,4.3438 l 58.031246,-0.4375 a 4.3294329,4.3294329 0 0 0 4.3125,-4.3438 l 0,-108.12497 a 4.3294329,4.3294329 0 0 0 -4.40625,-4.40625 z m -57.999996,17.75 a 4.3294329,4.3294329 0 0 0 -2.375,1 l -31.8125,26.96875 a 4.3294329,4.3294329 0 1 0 5.59375,6.59375 l 29.03125,-24.5625 29,24.53125 a 4.3353392,4.3353392 0 1 0 5.59375,-6.625 l -31.8125,-26.90625 a 4.3294329,4.3294329 0 0 0 -3.21875,-1 z"
       id="path3880"
       inkscape:connector-curvature="0" />
    <path
       inkscape:connector-curvature="0"
       id="path3889"
       d="m 102.28571,933.92468 a 4.3294329,4.3294329 0 0 0 -4.249996,4.40625 l 0,103.81247 -49.375,0.375 0,-50.03122 a 4.3294329,4.3294329 0 1 0 -8.65625,0 l 0,54.40622 a 4.3294329,4.3294329 0 0 0 4.34375,4.3438 l 58.031246,-0.4375 a 4.3294329,4.3294329 0 0 0 4.3125,-4.3438 l 0,-108.12497 a 4.3294329,4.3294329 0 0 0 -4.40625,-4.40625 z m -57.999996,17.75 a 4.3294329,4.3294329 0 0 0 -2.375,1 l -31.8125,26.96875 a 4.3294329,4.3294329 0 1 0 5.59375,6.59375 l 29.03125,-24.5625 29,24.53125 a 4.3353392,4.3353392 0 1 0 5.59375,-6.625 l -31.8125,-26.90625 a 4.3294329,4.3294329 0 0 0 -3.21875,-1 z"
       style="font-size:medium;font-style:normal;font-variant:normal;font-weight:normal;font-stretch:normal;text-indent:0;text-align:start;text-decoration:none;line-height:normal;letter-spacing:normal;word-spacing:normal;text-transform:none;direction:ltr;block-progression:tb;writing-mode:lr-tb;text-anchor:start;baseline-shift:baseline;color:#000000;fill:#ffffff;fill-opacity:1;stroke:none;stroke-width:8.65799999000000042;marker:none;visibility:visible;display:inline;overflow:visible;enable-background:accumulate;font-family:Sans;-inkscape-font-specification:Sans" />
  </g>
</svg>
