<?xml version="1.0" encoding="UTF-8" standalone="no"?>
<!-- Created with Inkscape (http://www.inkscape.org/) -->

<svg
   xmlns:dc="http://purl.org/dc/elements/1.1/"
   xmlns:cc="http://creativecommons.org/ns#"
   xmlns:rdf="http://www.w3.org/1999/02/22-rdf-syntax-ns#"
   xmlns:svg="http://www.w3.org/2000/svg"
   xmlns="http://www.w3.org/2000/svg"
   xmlns:sodipodi="http://sodipodi.sourceforge.net/DTD/sodipodi-0.dtd"
   xmlns:inkscape="http://www.inkscape.org/namespaces/inkscape"
   width="120"
   height="120"
   id="svg2"
   version="1.1"
   inkscape:version="0.48.5 r10040"
   sodipodi:docname="170724_202104.svg">
  <defs
     id="defs4">
    <filter
       inkscape:collect="always"
       id="filter3918"
       x="-0.15826633"
       width="1.3165327"
       y="-0.45453401"
       height="1.909068">
      <feGaussianBlur
         inkscape:collect="always"
         stdDeviation="7.494535"
         id="feGaussianBlur3920" />
    </filter>
    <filter
       inkscape:collect="always"
       id="filter3972"
       x="-0.23517056"
       width="1.4703411"
       y="-0.23522945"
       height="1.4704589">
      <feGaussianBlur
         inkscape:collect="always"
         stdDeviation="11.311134"
         id="feGaussianBlur3974" />
    </filter>
  </defs>
  <sodipodi:namedview
     id="base"
     pagecolor="#ffffff"
     bordercolor="#666666"
     borderopacity="1.0"
     inkscape:pageopacity="0.0"
     inkscape:pageshadow="2"
     inkscape:zoom="1.979899"
     inkscape:cx="160.23542"
     inkscape:cy="23.659522"
     inkscape:document-units="px"
     inkscape:current-layer="layer1"
     showgrid="false"
     inkscape:snap-bbox="true"
     inkscape:object-nodes="true"
     inkscape:bbox-nodes="true"
     inkscape:bbox-paths="true"
     inkscape:snap-global="false"
     inkscape:window-width="1024"
     inkscape:window-height="702"
     inkscape:window-x="0"
     inkscape:window-y="27"
     inkscape:window-maximized="1" />
  <metadata
     id="metadata7">
    <rdf:RDF>
      <cc:Work
         rdf:about="">
        <dc:format>image/svg+xml</dc:format>
        <dc:type
           rdf:resource="http://purl.org/dc/dcmitype/StillImage" />
        <dc:title />
      </cc:Work>
    </rdf:RDF>
  </metadata>
  <g
     inkscape:label="Layer 1"
     inkscape:groupmode="layer"
     id="layer1"
     transform="translate(0,-932.36218)">
    <path
       style="font-size:medium;font-style:normal;font-variant:normal;font-weight:normal;font-stretch:normal;text-indent:0;text-align:start;text-decoration:none;line-height:normal;letter-spacing:normal;word-spacing:normal;text-transform:none;direction:ltr;block-progression:tb;writing-mode:lr-tb;text-anchor:start;baseline-shift:baseline;color:#000000;fill:#ffffff;fill-opacity:1;stroke:none;stroke-width:8.65799999;marker:none;visibility:visible;display:inline;overflow:visible;filter:url(#filter3972);enable-background:accumulate;font-family:Sans;-inkscape-font-specification:Sans"
       d="m 60.1875,2.125 a 4.3294329,4.3294329 0 0 0 -4.25,4.40625 l 0,48.9375 -48.96875,0 a 4.3294329,4.3294329 0 1 0 0,8.65625 l 48.96875,0 0,48.96875 a 4.3294329,4.3294329 0 1 0 8.65625,0 l 0,-48.96875 48.9375,0 a 4.3294329,4.3294329 0 1 0 0,-8.65625 l -48.9375,0 0,-48.9375 A 4.3294329,4.3294329 0 0 0 60.1875,2.125 z"
       id="path3941"
       transform="matrix(0.70710678,-0.70710678,0.70710678,0.70710678,-24.657225,992.48827)"
       inkscape:connector-curvature="0" />
    <path
       id="path3954"
       d="m 19.404366,951.43188 a 4.3294329,4.3294329 0 0 0 0.110485,6.1209 l 34.604038,34.60404 -34.626135,34.62618 a 4.3294329,4.3294329 0 1 0 6.120893,6.1208 l 34.626135,-34.62609 34.626136,34.62609 a 4.3294329,4.3294329 0 1 0 6.120892,-6.1208 L 66.360676,992.15682 100.96471,957.55278 a 4.3294329,4.3294329 0 1 0 -6.120889,-6.1209 L 60.239782,986.03592 25.635744,951.43188 a 4.3294329,4.3294329 0 0 0 -6.231378,0 z"
       style="font-size:medium;font-style:normal;font-variant:normal;font-weight:normal;font-stretch:normal;text-indent:0;text-align:start;text-decoration:none;line-height:normal;letter-spacing:normal;word-spacing:normal;text-transform:none;direction:ltr;block-progression:tb;writing-mode:lr-tb;text-anchor:start;baseline-shift:baseline;color:#000000;fill:#ffffff;fill-opacity:1;stroke:none;stroke-width:8.65799999;marker:none;visibility:visible;display:inline;overflow:visible;enable-background:accumulate;font-family:Sans;-inkscape-font-specification:Sans"
       inkscape:connector-curvature="0" />
  </g>
</svg>
