<?xml version="1.0" encoding="UTF-8" standalone="no"?>
<!-- Created with Inkscape (http://www.inkscape.org/) -->

<svg
   xmlns:dc="http://purl.org/dc/elements/1.1/"
   xmlns:cc="http://creativecommons.org/ns#"
   xmlns:rdf="http://www.w3.org/1999/02/22-rdf-syntax-ns#"
   xmlns:svg="http://www.w3.org/2000/svg"
   xmlns="http://www.w3.org/2000/svg"
   xmlns:sodipodi="http://sodipodi.sourceforge.net/DTD/sodipodi-0.dtd"
   xmlns:inkscape="http://www.inkscape.org/namespaces/inkscape"
   width="628"
   height="180"
   id="svg2"
   version="1.1"
   inkscape:version="0.48.5 r10040"
   sodipodi:docname="critical-note_codeBlock-arrow2.svg">
  <defs
     id="defs4" />
  <sodipodi:namedview
     id="base"
     pagecolor="#ffffff"
     bordercolor="#666666"
     borderopacity="1.0"
     inkscape:pageopacity="0.0"
     inkscape:pageshadow="2"
     inkscape:zoom="0.9899495"
     inkscape:cx="317.69948"
     inkscape:cy="34.328369"
     inkscape:document-units="px"
     inkscape:current-layer="layer1"
     showgrid="false"
     inkscape:snap-bbox="false"
     inkscape:object-paths="true"
     inkscape:bbox-nodes="true"
     inkscape:object-nodes="true"
     showguides="true"
     inkscape:guide-bbox="true"
     inkscape:snap-global="false"
     inkscape:snap-page="true"
     inkscape:window-width="1024"
     inkscape:window-height="702"
     inkscape:window-x="0"
     inkscape:window-y="27"
     inkscape:window-maximized="1"
     inkscape:snap-intersection-paths="true"
     inkscape:snap-smooth-nodes="true"
     inkscape:bbox-paths="true"
     inkscape:snap-nodes="false" />
  <metadata
     id="metadata7">
    <rdf:RDF>
      <cc:Work
         rdf:about="">
        <dc:format>image/svg+xml</dc:format>
        <dc:type
           rdf:resource="http://purl.org/dc/dcmitype/StillImage" />
        <dc:title />
      </cc:Work>
    </rdf:RDF>
  </metadata>
  <g
     inkscape:label="Layer 1"
     inkscape:groupmode="layer"
     id="layer1"
     transform="translate(0,-872.36218)">
    <g
       id="g3568"
       transform="matrix(0.94360389,0,0,0.94360389,16.795739,64.776244)">
      <g
         transform="translate(-89.903577,4.0406085)"
         id="g3552">
        <g
           id="g3539"
           transform="translate(32.857143,1.4285755)">
          <path
             transform="matrix(0.62857732,0,0,0.62857732,62.147979,881.44212)"
             d="m 40.714285,102.85714 c 0,11.04569 -8.954305,20 -20,20 -11.0456951,0 -20.0000001,-8.95431 -20.0000001,-20 0,-11.045695 8.954305,-20 20.0000001,-20 11.045695,0 20,8.954305 20,20 z"
             sodipodi:ry="20"
             sodipodi:rx="20"
             sodipodi:cy="102.85714"
             sodipodi:cx="20.714285"
             id="path3470"
             style="fill:#000000;fill-opacity:1;stroke:none"
             sodipodi:type="arc" />
          <path
             sodipodi:type="arc"
             style="fill:#000000;fill-opacity:1;stroke:none"
             id="path3472"
             sodipodi:cx="20.714285"
             sodipodi:cy="102.85714"
             sodipodi:rx="20"
             sodipodi:ry="20"
             d="m 40.714285,102.85714 c 0,11.04569 -8.954305,20 -20,20 -11.0456951,0 -20.0000001,-8.95431 -20.0000001,-20 0,-11.045695 8.954305,-20 20.0000001,-20 11.045695,0 20,8.954305 20,20 z"
             transform="matrix(1.0161022,0,0,1.0161022,130.28567,841.58251)" />
          <path
             transform="matrix(1.6055033,0,0,1.6055033,217.77532,780.95826)"
             d="m 40.714285,102.85714 c 0,11.04569 -8.954305,20 -20,20 -11.0456951,0 -20.0000001,-8.95431 -20.0000001,-20 0,-11.045695 8.954305,-20 20.0000001,-20 11.045695,0 20,8.954305 20,20 z"
             sodipodi:ry="20"
             sodipodi:rx="20"
             sodipodi:cy="102.85714"
             sodipodi:cx="20.714285"
             id="path3474"
             style="fill:#000000;fill-opacity:1;stroke:none"
             sodipodi:type="arc" />
        </g>
      </g>
      <path
         transform="matrix(2.5331028,0,0,2.5331028,261.87794,691.01733)"
         d="m 40.714285,102.85714 c 0,11.04569 -8.954305,20 -20,20 -11.0456951,0 -20.0000001,-8.95431 -20.0000001,-20 0,-11.045695 8.954305,-20 20.0000001,-20 11.045695,0 20,8.954305 20,20 z"
         sodipodi:ry="20"
         sodipodi:rx="20"
         sodipodi:cy="102.85714"
         sodipodi:cx="20.714285"
         id="path3476"
         style="fill:#000000;fill-opacity:1;stroke:none"
         sodipodi:type="arc" />
      <g
         transform="matrix(-1,0,0,1,721.36173,4.0406085)"
         id="g3558">
        <g
           transform="translate(32.857143,1.4285755)"
           id="g3560">
          <path
             sodipodi:type="arc"
             style="fill:#000000;fill-opacity:1;stroke:none"
             id="path3562"
             sodipodi:cx="20.714285"
             sodipodi:cy="102.85714"
             sodipodi:rx="20"
             sodipodi:ry="20"
             d="m 40.714285,102.85714 c 0,11.04569 -8.954305,20 -20,20 -11.0456951,0 -20.0000001,-8.95431 -20.0000001,-20 0,-11.045695 8.954305,-20 20.0000001,-20 11.045695,0 20,8.954305 20,20 z"
             transform="matrix(0.62857732,0,0,0.62857732,62.147979,881.44212)" />
          <path
             transform="matrix(1.0161022,0,0,1.0161022,130.28567,841.58251)"
             d="m 40.714285,102.85714 c 0,11.04569 -8.954305,20 -20,20 -11.0456951,0 -20.0000001,-8.95431 -20.0000001,-20 0,-11.045695 8.954305,-20 20.0000001,-20 11.045695,0 20,8.954305 20,20 z"
             sodipodi:ry="20"
             sodipodi:rx="20"
             sodipodi:cy="102.85714"
             sodipodi:cx="20.714285"
             id="path3564"
             style="fill:#000000;fill-opacity:1;stroke:none"
             sodipodi:type="arc" />
          <path
             sodipodi:type="arc"
             style="fill:#000000;fill-opacity:1;stroke:none"
             id="path3566"
             sodipodi:cx="20.714285"
             sodipodi:cy="102.85714"
             sodipodi:rx="20"
             sodipodi:ry="20"
             d="m 40.714285,102.85714 c 0,11.04569 -8.954305,20 -20,20 -11.0456951,0 -20.0000001,-8.95431 -20.0000001,-20 0,-11.045695 8.954305,-20 20.0000001,-20 11.045695,0 20,8.954305 20,20 z"
             transform="matrix(1.6055033,0,0,1.6055033,217.77532,780.95826)" />
        </g>
      </g>
    </g>
  </g>
</svg>
