<?xml version="1.0" encoding="UTF-8" standalone="no"?>
<!-- Created with Inkscape (http://www.inkscape.org/) -->

<svg
   xmlns:dc="http://purl.org/dc/elements/1.1/"
   xmlns:cc="http://creativecommons.org/ns#"
   xmlns:rdf="http://www.w3.org/1999/02/22-rdf-syntax-ns#"
   xmlns:svg="http://www.w3.org/2000/svg"
   xmlns="http://www.w3.org/2000/svg"
   xmlns:sodipodi="http://sodipodi.sourceforge.net/DTD/sodipodi-0.dtd"
   xmlns:inkscape="http://www.inkscape.org/namespaces/inkscape"
   width="150"
   height="200"
   id="svg2"
   version="1.1"
   inkscape:version="0.48.5 r10040"
   sodipodi:docname="coreNote_codeBlock-arrow.svg">
  <defs
     id="defs4" />
  <sodipodi:namedview
     id="base"
     pagecolor="#ffffff"
     bordercolor="#666666"
     borderopacity="1.0"
     inkscape:pageopacity="0.0"
     inkscape:pageshadow="2"
     inkscape:zoom="0.98994949"
     inkscape:cx="-17.090061"
     inkscape:cy="79.020293"
     inkscape:document-units="px"
     inkscape:current-layer="layer1"
     showgrid="false"
     inkscape:snap-bbox="false"
     inkscape:object-paths="true"
     inkscape:bbox-nodes="true"
     inkscape:object-nodes="true"
     showguides="true"
     inkscape:guide-bbox="true"
     inkscape:snap-global="false"
     inkscape:snap-page="true"
     inkscape:window-width="1024"
     inkscape:window-height="702"
     inkscape:window-x="0"
     inkscape:window-y="27"
     inkscape:window-maximized="1"
     inkscape:snap-intersection-paths="true"
     inkscape:snap-smooth-nodes="true"
     inkscape:bbox-paths="true"
     inkscape:snap-nodes="false"
     fit-margin-top="0"
     fit-margin-left="0"
     fit-margin-right="0"
     fit-margin-bottom="0" />
  <metadata
     id="metadata7">
    <rdf:RDF>
      <cc:Work
         rdf:about="">
        <dc:format>image/svg+xml</dc:format>
        <dc:type
           rdf:resource="http://purl.org/dc/dcmitype/StillImage" />
        <dc:title />
      </cc:Work>
    </rdf:RDF>
  </metadata>
  <g
     inkscape:label="Layer 1"
     inkscape:groupmode="layer"
     id="layer1"
     transform="translate(-8.9295764,-1080.8064)">
    <path
       style="font-size:medium;font-style:normal;font-variant:normal;font-weight:normal;font-stretch:normal;text-indent:0;text-align:start;text-decoration:none;line-height:normal;letter-spacing:normal;word-spacing:normal;text-transform:none;direction:ltr;block-progression:tb;writing-mode:lr-tb;text-anchor:start;baseline-shift:baseline;color:#000000;fill:#000000;fill-opacity:1;stroke:none;stroke-width:20;marker:none;visibility:visible;display:inline;overflow:visible;enable-background:accumulate;font-family:Sans;-inkscape-font-specification:Sans"
       d="m 26.579931,1080.8064 -17.6503546,3.3209 c 2.7799726,15.4427 3.9430946,27.4075 10.8423606,42.4278 6.353021,13.831 17.616721,29.947 38.242435,54.2513 -20.625713,24.3043 -31.889415,40.449 -38.242435,54.28 -6.899265,15.0202 -8.062388,26.9849 -10.8423606,42.4277 l 17.6503546,3.2923 c 2.906633,-16.1464 3.732982,-25.566 9.413523,-37.933 5.68054,-12.3671 16.729936,-28.4899 40.539783,-55.9977 l 5.239073,-6.0693 -5.239073,-6.0693 c -23.809847,-27.5078 -34.859244,-43.602 -40.539783,-55.969 -5.68054,-12.367 -6.50689,-21.8153 -9.413523,-37.9617 z m 77.157269,0 -17.622342,3.3209 c 2.77998,15.4427 3.915079,27.4075 10.814344,42.4278 6.352148,13.8291 17.622238,29.9527 38.242438,54.2513 -20.6202,24.2986 -31.89029,40.4508 -38.242438,54.28 -6.899264,15.0202 -8.034364,26.9849 -10.814344,42.4277 l 17.622342,3.2923 c 2.90664,-16.1464 3.761,-25.566 9.44154,-37.933 5.68054,-12.3671 16.70192,-28.4899 40.51177,-55.9977 l 5.23907,-6.0693 -5.23907,-6.0693 c -23.80984,-27.5078 -34.83123,-43.602 -40.51177,-55.969 -5.68054,-12.367 -6.5349,-21.8153 -9.44154,-37.9617 z"
       id="path3863-9"
       inkscape:connector-curvature="0" />
  </g>
</svg>
