<?xml version="1.0" encoding="UTF-8" standalone="no"?>
<!-- Created with Inkscape (http://www.inkscape.org/) -->
<?xml-stylesheet type="text/css" href="foo.css" ?>
<svg
    xmlns:dc="http://purl.org/dc/elements/1.1/"
    xmlns:cc="http://creativecommons.org/ns#"
    xmlns:rdf="http://www.w3.org/1999/02/22-rdf-syntax-ns#"
    xmlns:svg="http://www.w3.org/2000/svg"
    xmlns="http://www.w3.org/2000/svg"
    version="1.1"
    width="744.09448"
    height="1052.3622"
    id="svg2"
    viewBox="50 50 1000 1000">
    <style>
        /*#path3148 {
            viewBox: 0 0 100 100;
            fill: green !important;
        }*/
    </style>
   <defs
       id="defs4">
      <filter
          color-interpolation-filters="sRGB"
          id="filter4667">
         <feGaussianBlur
             id="feGaussianBlur4669"
             stdDeviation="2.8602331" />
      </filter>
   </defs>
   <metadata
       id="metadata7">
      <rdf:RDF>
         <cc:Work
             rdf:about="">
            <dc:format>image/svg+xml</dc:format>
            <dc:type
                rdf:resource="http://purl.org/dc/dcmitype/StillImage" />
            <dc:title></dc:title>
         </cc:Work>
      </rdf:RDF>
   </metadata>
   <g
       id="layer1">
      <path
          d="m 176.65733,1006.6084 c -2.1418,-0.7823 -2.75,-1.6494 -2.75,-3.921 l 0,-2.91667 -11.5657,0 c -6.3612,0 -12.4315,-0.4633 -13.4897,-1.0296 -3.6168,-1.9357 -4.9446,-6.3054 -4.9446,-16.2729 0,-8.1335 0.3082,-9.8601 2.2844,-12.7996 1.2564,-1.8689 3.3158,-3.5462 4.5764,-3.7275 1.3119,-0.1886 2.0654,-0.8301 1.7619,-1.5 -13.4179,-29.6173 -19.6227,-58.9682 -19.6227,-92.8229 0,-62.5112 16.1871,-116.298 49.6898,-165.1101 16.9752,-24.7322 36.036,-45.5846 62.3102,-68.1666 19.0107,-16.3392 28.034,-23.1669 51.8751,-39.2522 14.4162,-9.72641 18.7554,-15.0046 23.2053,-28.22652 2.8655,-8.51405 3.2798,-11.16553 3.6865,-23.59209 1.039,-31.74588 -6.5045,-57.65219 -19.2669,-66.16746 -9.4847,-6.32838 -14.0477,-9.51639 -28,-19.56289 -15.5529,-11.19905 -16.9622,-12.29888 -32.8461,-25.63317 -16.254,-13.64503 -43.9515,-41.98856 -50.9482,-52.13648 -0.948,-1.375 -3.2772,-4.525 -5.176,-7 -25.7827,-33.60628 -42.05,-70.69578 -50.5856,-115.33475 -2.0082,-10.50266 -3.9441,-35.78736 -3.9441,-51.51502 0,-33.95448 6.3164,-64.13998 19.025,-90.91916 3.4694,-7.31075 3.4542,-7.23107 1.3793,-7.23107 -2.5765,0 -7.146,-3.13764 -8.3191,-5.71232 -0.5968,-1.30998 -1.0852,-6.905612 -1.0852,-12.434732 l 0,-10.05295 3.4,-3.4 3.4,-3.4 11.6,0 c 9.5889,0 11.6217,-0.26006 11.725,-1.5 0.197,-2.36429 0.3531,-2.91721 1.1994,-4.25 0.6306,-0.99325 42.2555,-1.25 202.6529,-1.25 111.0225,0 202.571,0.27314 203.4409,0.60699 0.9234,0.35433 1.5818,1.77725 1.5818,3.41844 l 0,2.81146 12.597,0.33155 12.597,0.33156 2.3981,3 c 2.2061,2.75988 2.3984,3.88966 2.403,14.11514 0.01,12.479172 -1.3005,15.634122 -6.9891,16.883562 l -2.9697,0.65225 1.6363,3.67453 c 15.252,34.24926 20.5351,59.15673 20.4428,96.37809 -0.1336,53.88508 -9.2862,95.10242 -29.6713,133.62027 -5.3917,10.18772 -17.257,28.69189 -22.3346,34.83127 -1.4352,1.73531 -5.9237,7.20352 -9.9744,12.15158 -7.5252,9.19233 -27.1524,28.87239 -39.6611,39.76793 -15.0827,13.13762 -36.5608,29.22721 -59.0797,44.2575 -16.5037,11.01542 -20.0311,14.74588 -25.7918,27.2765 -4.8658,10.58416 -7.016,21.89023 -7.016,36.89138 0,15.00115 2.1502,26.30722 7.016,36.89138 5.7693,12.54943 9.2003,16.11874 26.9729,28.06063 14.4694,9.7224 28.5876,19.9556 44.4894,32.2468 20.7855,16.066 45.406,40.6906 63.2905,63.3012 7.2395,9.1525 18.7185,27.9677 25.6239,42 13.9336,28.314 21.1782,54.8255 24.467,89.5374 2.7113,28.6173 1.8484,64.0808 -2.031,83.4626 -2.3786,11.8843 -9.9175,34.5202 -16.0285,48.1266 -0.2783,0.6197 0.5907,1.4019 1.931,1.7383 4.3353,1.0881 6.0894,5.1948 6.2881,14.7223 0.2249,10.7811 -0.2502,13.237 -3.1697,16.3873 -2.252,2.4299 -2.7941,2.5255 -14.3219,2.5255 l -11.9813,0 -0.3165,2.72677 c -0.603,5.1965 -1.0961,5.2425 -56.3664,5.2585 -39.4718,0.011 -34.9275,-1.0294 -52.3967,-1.2353 -0.2137,0 -0.4273,0 -0.641,0 -30.9729,0.2083 -18.3081,1.25 -92.9123,1.25 -74.6041,0 -91.7684,-1.2437 -92.9123,-1.25 -0.2702,0 -1.0595,0.082 -1.5904,0.098 -36.7317,1.1314 -105.9016,1.5767 -110.2473,-0.01 z m 15.25,-41.43327 c 0,-0.3276 -0.843,-1.7901 -1.8733,-3.25 -2.9535,-4.1849 -7.8213,-14.3079 -9.9806,-20.7554 -4.2132,-12.5807 -5.2507,-18.2807 -5.8335,-32.0503 l -0.5989,-14.1512 7.3931,-0.5426 c 4.0663,-0.2984 15.4932,-1.0325 25.3932,-1.6314 53.7083,-3.249 91.2559,-12.3496 115.5,-27.9943 15.3579,-9.9105 33.7871,-26.9774 46.1665,-42.7538 11.0901,-14.1334 10.7025,-12.5641 10.8121,-43.7754 0.052,-14.85 0.5134,-49.95 1.0252,-78 0.5117,-28.05 0.9452,-64.1247 0.9633,-80.166 l 0.033,-9.94935 -3.75,-22.10597 c -0.43547,-2.56704 -6.078,-4.35176 -8.9234,-6.13915 -12.8659,-8.08187 -17.3581,-16.28666 -22.7982,-41.63954 -0.236,-1.1 -1.1187,-7.93814 -1.9614,-15.19586 -1.6734,-14.41144 -5.5506,-28.18638 -9.8394,-34.95763 -1.447,-2.28441 -5.1736,-6.10941 -8.2814,-8.5 -12.5226,-9.63255 -16.2952,-14.24347 -24.6714,-21.0918 -1.72587,-1.41106 -3.59993,-2.641 -5.2693,-4.11846 -16.55631,-14.653 -37.0494,-34.51649 -46.8934,-46.90848 -11.6569,-14.67399 -14.0737,-17.93283 -20.3773,-27.47686 -9.0432,-13.692 -15.4864,-25.15291 -14.9404,-26.5756 0.6498,-1.69344 19.0798,-5.18789 37.7056,-7.14925 7.975,-0.83979 16.8938,-1.78799 19.8195,-2.10712 12.646,-1.37935 32.6739,-0.55657 49.0283,2.01416 8.9912,1.41334 16.6979,2.7861 17.1258,3.05058 1.1036,0.68208 33.8583,7.12937 44.0264,8.66598 10.1419,1.53266 47.3948,1.733 84.5,0.45444 18.8484,-0.64947 29.3008,-0.56558 38,0.30499 11.24,1.12482 28.4784,4.59574 34.7822,7.00329 2.7678,1.0571 2.7736,1.07895 1.1372,4.24353 -4.5672,8.8319 -22.4389,33.0363 -33.4038,45.24005 -14.9853,16.6784 -27.34817,25.09784 -40.3574,38.32342 -1.26393,1.28495 -2.35168,2.74024 -3.6582,3.98186 -1.80462,1.71497 -2.5875,1.84582 -5.75,4.7663 -5.4887,5.06871 -14.3006,12.17846 -22.5927,18.2287 -6.266,4.57197 -10.5997,9.45444 -13.6367,15.36359 -1.5715,3.05791 -3.13016,4.42669 -4.3796,6.82312 -0.42045,0.80644 -0.78517,1.64952 -1.0387,2.52293 -0.81873,2.82046 -0.4224,4.59742 -1.5295,8.67689 -1.107,4.07948 -2.496,11.69223 -3.0865,16.91723 -1.3907,12.30439 -4.1165,21.33933 -8.2063,27.20056 -1.804,2.5853 -5.2312,7.45507 -7.616,10.82171 -8.1773,11.54405 -8.8623,15.13279 -9.5405,49.97774 -0.3265,16.775 -0.698,65.2938 -0.8255,107.8195 l -0.232,77.3196 5.967,3.213 c 6.16,3.317 21.8148,13.59 31.467,20.6493 6.887,5.0369 7.6753,5.5715 17.7398,12.0304 6.92,3.9935 3.3451,2.3059 12.9347,7.7625 2.104,1.0526 11.4755,5.7438 20.8255,10.4248 21.7447,10.8862 28.9564,14.2645 54,25.2961 4.0193,1.7705 10.5986,4.3317 32,12.457 9.9,3.7587 19.7514,7.5853 21.8919,8.5036 l 3.892,1.6697 -0.6382,8.3024 c -0.8992,11.6986 -4.683,24.1454 -11.4917,37.8021 l -5.8582,11.75 11.1419,0 11.1418,0 3.6968,-8.75 c 5.768,-13.6523 10.2997,-28.6643 13.3885,-44.3512 2.7543,-13.988 2.8335,-15.2832 2.7754,-45.3988 -0.055,-28.5395 -0.2751,-32.398 -2.7714,-48.613 -2.5975,-16.8717 -8.776,-42.4803 -12.1983,-50.5587 -0.892,-2.1056 -2.314,-5.8533 -3.16,-8.3283 -1.8446,-5.3966 -14.0986,-30.3498 -16.9596,-34.5353 -1.1146,-1.6306 -4.5557,-6.7897 -7.6468,-11.4647 -25.3744,-38.3761 -66.4871,-75.5717 -128.7041,-116.4415 -3.7195,-2.4433 -4.09969,-3.88379 -6,-6.14363 -0.66001,-0.78488 -0.50072,-0.77505 -0.9188,-1.43167 -5.2947,-4.65572 -9.7359,-14.52817 -13.1246,-28.48321 -4.7435,-19.53478 -1.0719,-47.71032 8.2749,-63.5 3.758,-6.34841 12.1091,-14.09726 23.2685,-21.59037 15.1116,-10.1469 21.7532,-14.8052 30.4075,-21.32721 4.0741,-3.07033 8.5741,-6.46187 10,-7.53675 7.8178,-5.89326 27.9661,-23.58903 37.1655,-32.64152 25.4127,-25.00687 42.1325,-47.26115 55.4566,-73.81343 18.7804,-37.42572 27.4335,-77.79765 27.4597,-128.11695 0.015,-28.17161 -2.8601,-48.41897 -9.9504,-70.08064 -2.8864,-8.81823 -10.1119,-26.86538 -11.87,-29.64794 -0.6318,-0.99982 -42.9219,-1.25479 -208.1172,-1.25474 -192.886,7e-5 -207.4097,0.1169 -208.5509,1.67761 -4.5584,6.23389 -14.5188,35.73849 -18.1732,53.83194 -2.7355,13.54378 -2.8266,14.97761 -2.7968,44 0.029,28.18153 0.2004,31.00016 2.8303,46.5 7.2083,42.48338 21.2026,76.51437 46.6389,113.41501 17.7856,25.80168 53.488,61.25465 85,84.40613 10.9256,8.02689 19.188,13.87951 28.5,20.18785 12.6633,8.57865 15.6559,11.76671 19.4661,20.73794 5.4339,12.79414 7.3587,24.35351 7.4518,44.75307 0.073,15.98087 -0.177,18.89739 -2.2281,26 -2.6328,9.11699 -7.7034,18.78208 -11.8587,22.60399 -1.5571,1.4322 -9.3561,7.02851 -17.3311,12.43622 -36.5669,24.7955 -62.4496,47.2545 -88.1154,76.4598 -5.7569,6.5508 -12.0293,14.6903 -22.733,29.5 -9.9127,13.7151 -24.3791,41.9504 -31.2535,61 -7.2553,20.1051 -13.164,46.5986 -15.8967,71.2788 -1.5808,14.2763 -1.3228,50.1098 0.4449,61.7767 3.012,19.8809 8.2447,38.9434 15.0822,54.9445 0.94,2.2 2.0946,5.0125 2.5656,6.25 0.8197,2.1536 1.35,2.25 12.3812,2.25 6.3386,0 11.5247,-0.268 11.5247,-0.5956 z"
          id="path3148"
          style="fill:#11605e;fill-opacity:1;filter:url(#filter4667)" />
   </g>
</svg>
